<?xml version="1.0" encoding="UTF-8" standalone="no"?>
<!-- Created with Inkscape (http://www.inkscape.org/) -->

<svg
   xmlns:dc="http://purl.org/dc/elements/1.1/"
   xmlns:cc="http://creativecommons.org/ns#"
   xmlns:rdf="http://www.w3.org/1999/02/22-rdf-syntax-ns#"
   xmlns:svg="http://www.w3.org/2000/svg"
   xmlns="http://www.w3.org/2000/svg"
   xmlns:sodipodi="http://sodipodi.sourceforge.net/DTD/sodipodi-0.dtd"
   xmlns:inkscape="http://www.inkscape.org/namespaces/inkscape"
   version="1.1"
   id="svg3713"
   width="960"
   height="960"
   viewBox="0 0 960 960"
   sodipodi:docname="Statera  afgageageagea.svg"
   inkscape:version="0.92.4 (5da689c313, 2019-01-14)">
  <metadata
     id="metadata3719">
    <rdf:RDF>
      <cc:Work
         rdf:about="">
        <dc:format>image/svg+xml</dc:format>
        <dc:type
           rdf:resource="http://purl.org/dc/dcmitype/StillImage" />
        <dc:title></dc:title>
      </cc:Work>
    </rdf:RDF>
  </metadata>
  <defs
     id="defs3717" />
  <sodipodi:namedview
     pagecolor="#ffffff"
     bordercolor="#666666"
     borderopacity="1"
     objecttolerance="10"
     gridtolerance="10"
     guidetolerance="10"
     inkscape:pageopacity="0"
     inkscape:pageshadow="2"
     inkscape:window-width="3840"
     inkscape:window-height="2035"
     id="namedview3715"
     showgrid="false"
     inkscape:zoom="1.83125"
     inkscape:cx="480"
     inkscape:cy="501.843"
     inkscape:window-x="3827"
     inkscape:window-y="-13"
     inkscape:window-maximized="1"
     inkscape:current-layer="svg3713" />
  <path
     style="fill:#000000"
     d="m 461.68929,798.40542 c -0.2695,-0.80958 -5.9699,-23.48705 -12.6676,-50.39437 l -12.1776,-48.9224 0.6566,-16.5776 c 0.3611,-9.11768 1.3074,-31.4276 2.1029,-49.5776 0.7955,-18.15 1.937,-45.825 2.5367,-61.5 0.5997,-15.675 1.6332,-41.1 2.2967,-56.5 0.6634,-15.4 0.9592,-29.2889 0.6573,-30.86421 -0.5392,-2.81255 -0.7321,-2.6742 -10.6948,7.6694 -5.5801,5.79349 -11.9392,12.93239 -14.1313,15.86422 -5.2565,7.03033 -12.7544,14.22186 -14.0153,13.44258 -0.976,-0.60317 -0.2704,-2.88899 4.8188,-15.61199 1.1,-2.75 2.9,-7.25 4,-10 1.1,-2.75 2.9,-7.25 4,-10 1.1,-2.75 2.9467,-7.3625 4.1039,-10.25 1.1572,-2.8875 3.4465,-8.85 5.0874,-13.25 1.641,-4.4 3.6413,-9.75797 4.4451,-11.9066 2.3309,-6.22999 1.6103,-7.96369 -3.6364,-8.74924 -2.475,-0.37056 -11.925,-2.10562 -21,-3.85569 -9.075,-1.75007 -18.75,-3.56594 -21.5,-4.03526 -2.75,-0.46933 -7.25,-1.2785 -10,-1.79816 -16.6709,-3.15027 -29.5175,-5.51883 -33,-6.08428 l -4,-0.64948 5,-0.68059 c 11.4896,-1.56394 27.006,-3.81243 42.5,-6.15869 9.075,-1.37423 23.5874,-3.52987 32.2499,-4.79031 14.3361,-2.08597 15.7481,-2.47124 15.7296,-4.2917 -0.011,-1.1 -1.8523,-7.175 -4.0912,-13.5 -3.9268,-11.09321 -11.3897,-32.24659 -19.6744,-55.76678 -2.1828,-6.19673 -3.6228,-11.48051 -3.2002,-11.74172 0.8836,-0.54606 7.9863,7.01428 7.9863,8.50079 0,0.5426 2.1375,3.40841 4.75,6.36849 2.6125,2.96007 6.775,7.95379 9.25,11.09714 2.475,3.14336 6.3,7.9998 8.5,10.79209 5.9617,7.56677 10.3417,11.96582 11.3151,11.36426 0.4762,-0.29429 1.1609,-10.11539 1.5217,-21.82467 0.6114,-19.84221 2.2427,-61.26873 4.6579,-118.2896 0.5592,-13.2 1.4539,-34.8 1.9884,-48 1.114,-27.51529 2.837,-67.89601 3.8615,-90.500007 l 0.7025,-15.499999 0.7454,19.999996 c 0.41,11.00001 1.1807,28.77501 1.7126,39.50001 0.532,10.725 1.4333,31.65 2.0028,46.5 0.5695,14.85 1.4699,36.675 2.0008,48.5 0.531,11.825 1.4131,32.75 1.9603,46.5 4.1314,103.80896 3.6707,96.5 6.0817,96.5 1.0252,0 3.1207,-1.65795 4.6566,-3.68433 1.536,-2.02638 6.1677,-7.36794 10.2927,-11.87014 4.125,-4.5022 9.975,-11.23112 13,-14.95317 8.5455,-10.51462 15.6384,-17.88634 16.2531,-16.89183 0.5588,0.90423 -0.1909,3.28109 -4.148,13.14947 -1.1578,2.8875 -3.0051,7.5 -4.1051,10.25 -1.1,2.75 -2.9517,7.3625 -4.1148,10.25 -1.1631,2.8875 -3.1998,8.32843 -4.5261,12.09095 -1.3262,3.76253 -3.3201,8.62247 -4.431,10.79987 -1.1108,2.1774 -3.3614,8.0648 -5.0013,13.08309 -3.2805,10.03867 -3.2167,10.27392 3.0732,11.33973 3.6438,0.61745 30.7966,5.68888 39.5,7.37756 4.6992,0.91176 13.43,2.54433 35.25,6.5913 5.0875,0.94359 9.25,2.10979 9.25,2.59156 0,0.48177 -0.6498,0.87594 -1.444,0.87594 -0.7942,0 -9.0067,1.14679 -18.25,2.54842 -9.2433,1.40163 -21.306,3.17292 -26.806,3.93621 -15.3088,2.12454 -37.6663,5.48175 -40.8484,6.13382 -2.7298,0.55938 -2.8217,0.76202 -2.2061,4.86689 0.3533,2.35576 1.5749,6.69778 2.7147,9.64893 1.1398,2.95115 4.681,12.79073 7.8692,21.86573 3.1882,9.075 8.111,23.025 10.9395,31 2.8285,7.975 5.3968,15.29419 5.7074,16.26486 0.8899,2.78116 -2.1538,1.10646 -3.7584,-2.0679 -0.7497,-1.48333 -2.7255,-4.32468 -4.3906,-6.31411 -1.665,-1.98944 -5.0523,-6.2048 -7.5273,-9.36747 -5.2687,-6.73261 -17.8217,-20.98422 -21.4657,-24.37034 l -2.5343,-2.35496 v 11.82272 c 0,6.5025 0.4367,20.16224 0.9704,30.35496 0.5338,10.19273 1.4451,31.80724 2.0253,48.03224 0.5801,16.225 1.4811,38.275 2.0021,49 0.521,10.725 1.4353,32.775 2.0318,49 l 1.0844,29.5 -4.1101,15.5 c -2.2605,8.525 -4.3438,16.625 -4.6295,18 -1.1684,5.62328 -8.6623,35.95298 -10.3774,42 -1.014,3.575 -2.5852,9.9003 -3.4915,14.05622 -1.8516,8.4901 -3.0868,11.32255 -3.8879,8.91575 z M 100.61727,761.43345 c 1.42658,-4.77642 23.17446,-35.94744 32.90692,-47.16516 2.22611,-2.56584 6.97247,-8.15374 10.54747,-12.41756 8.86348,-10.57128 52.31435,-54.71042 58.5,-59.42665 2.75,-2.09674 9.725,-8.48112 15.5,-14.18753 10.13568,-10.01529 10.71303,-10.82509 16.63973,-23.33919 8.3008,-17.52695 14.24046,-31.3966 18.39923,-42.96391 1.18644,-3.3 3.41558,-9.375 4.95364,-13.5 1.53806,-4.125 3.34752,-9.075 4.02103,-11 0.67351,-1.925 2.04735,-5.75 3.05296,-8.5 7.23351,-19.78105 36.5069,-112.38905 45.99256,-145.5 2.47198,-8.62892 6.69118,-22.73035 10.47208,-35 1.4406,-4.675 3.7231,-12.775 5.0724,-18 1.3492,-5.225 2.8756,-10.85 3.3921,-12.5 3.3389,-10.66804 7.3512,-24.34053 9.5373,-32.5 1.3999,-5.225 3.4421,-12.65 4.5383,-16.5 1.0962,-3.85 3.2797,-11.725 4.8521,-17.5 1.5725,-5.775 3.8228,-13.875 5.0007,-18 1.178,-4.125 3.8755,-14.025 5.9944,-22 2.119,-7.975 4.8205,-17.875 6.0035,-22 1.1829,-4.125 2.7699,-9.73923 3.5265,-12.47606 1.3803,-4.99241 5.6677,-9.99357 7.9115,-9.22863 1.4549,0.496 1.3471,6.40938 -0.2681,14.70469 -0.696,3.575 -1.6589,8.75 -2.1397,11.5 -0.4807,2.75 -1.5487,8.15 -2.3732,12 -0.8245,3.85 -2.8992,14.425 -4.6104,23.5 -1.7111,9.075 -3.532,18.525 -4.0462,21 -0.5143,2.475 -3.6514,18.675 -6.9713,36 -3.3199,17.325 -6.4306,33.3 -6.9125,35.5 -1.1274,5.14671 -2.1321,10.33272 -7.0712,36.5 -2.232,11.825 -4.4512,23.3 -4.9316,25.5 -0.4803,2.2 -1.3539,6.475 -1.9413,9.5 -0.5873,3.025 -1.8012,9.1 -2.6976,13.5 -0.8964,4.4 -1.9963,10.25 -2.4441,13 -0.714,4.38445 -5.8231,30.69554 -9.0293,46.5 -0.6137,3.025 -1.522,7.525 -2.0184,10 -0.4964,2.475 -1.6305,8.1 -2.5203,12.5 -0.8897,4.4 -1.9825,10.25 -2.4283,13 -0.8351,5.15137 -11.98526,61.80968 -14.95653,76 -0.46065,2.2 -1.36065,6.7 -2,10 -0.63935,3.3 -1.55141,7.8 -2.02681,10 -0.47539,2.2 -1.05822,5.125 -1.29518,6.5 -0.23696,1.375 -1.25538,6.1 -2.26315,10.5 -2.47148,10.79055 -2.60627,37.39918 -0.23093,45.58494 2.1139,7.2848 7.02817,16.9481 10.80861,21.25379 1.6541,1.88391 3.00787,3.81589 3.00838,4.29329 5e-4,0.47739 -7.14385,0.71694 -15.87635,0.53234 -27.89869,-0.58978 -57.10499,3.85091 -87.62457,13.32291 -15.68136,4.86684 -36.27721,13.69095 -47.29405,20.26273 -2.99654,1.7875 -5.86843,3.25 -6.38197,3.25 -1.14425,0 -11.06115,6.66184 -19.82398,13.31709 -3.575,2.71516 -11.60774,9.94206 -17.85054,16.05978 -7.8852,7.72722 -11.12257,10.35988 -10.60385,8.62313 z m 714.93562,-8.05757 c -9.9315,-10.0075 -24.3534,-21.7106 -31.9812,-25.95228 -2.2,-1.22337 -5.125,-3.01663 -6.5,-3.98501 -3.3117,-2.33231 -27.8195,-14.57397 -33.2358,-16.60124 -14.2683,-5.34052 -20.8733,-7.45689 -35.7642,-11.45947 -21.1246,-5.67817 -50.3813,-9.23972 -72.1246,-8.78007 -8.7325,0.1846 -15.8768,-0.0549 -15.8763,-0.53234 5e-4,-0.4774 1.3542,-2.40938 3.0083,-4.29329 3.7805,-4.30569 8.6947,-13.96899 10.8086,-21.25379 2.3754,-8.18576 2.2406,-34.79439 -0.2309,-45.58494 -1.0078,-4.4 -2.0262,-9.125 -2.2631,-10.5 -0.237,-1.375 -0.8198,-4.3 -1.2952,-6.5 -0.4754,-2.2 -1.3875,-6.7 -2.0268,-10 -0.6394,-3.3 -1.5394,-7.8 -2,-10 -2.9713,-14.19032 -14.1214,-70.84863 -14.9565,-76 -0.4459,-2.75 -1.544,-8.6 -2.4404,-13 -0.8964,-4.4 -2.1171,-10.475 -2.7126,-13.5 -0.5956,-3.025 -1.5039,-7.525 -2.0185,-10 -2.144,-10.31186 -8.0707,-40.86907 -8.8248,-45.5 -0.4479,-2.75 -1.5477,-8.6 -2.4441,-13 -0.8964,-4.4 -2.1104,-10.475 -2.6977,-13.5 -0.5873,-3.025 -1.4609,-7.3 -1.9413,-9.5 -0.4803,-2.2 -2.6995,-13.675 -4.9315,-25.5 -4.9392,-26.16728 -5.9439,-31.35329 -7.0713,-36.5 -0.4819,-2.2 -3.5925,-18.175 -6.9125,-35.5 -3.3199,-17.325 -6.457,-33.525 -6.9712,-36 -0.5143,-2.475 -2.3351,-11.925 -4.0463,-21 -1.7112,-9.075 -3.7858,-19.65 -4.6104,-23.5 -0.8245,-3.85 -1.8924,-9.25 -2.3732,-12 -0.4807,-2.75 -1.4436,-7.925 -2.1397,-11.5 -1.6152,-8.29531 -1.723,-14.20869 -0.268,-14.70469 2.2438,-0.76494 6.5311,4.23622 7.9114,9.22863 0.7567,2.73683 2.3436,8.35106 3.5266,12.47606 1.1829,4.125 3.8845,14.025 6.0034,22 2.119,7.975 4.8165,17.875 5.9944,22 1.178,4.125 3.4283,12.225 5.0007,18 1.5725,5.775 3.7559,13.65 4.8521,17.5 1.0962,3.85 3.1385,11.275 4.5384,16.5 2.186,8.15947 6.1983,21.83196 9.5373,32.5 0.5164,1.65 2.0429,7.275 3.3921,12.5 1.3492,5.225 3.6318,13.325 5.0724,18 3.7808,12.26965 8,26.37108 10.472,35 9.4857,33.11095 38.7591,125.71895 45.9926,145.5 1.0056,2.75 2.3794,6.575 3.0529,8.5 0.6736,1.925 2.483,6.875 4.0211,11 1.538,4.125 3.7672,10.2 4.9536,13.5 4.1588,11.56731 10.0984,25.43696 18.3992,42.96391 5.9267,12.5141 6.5041,13.3239 16.6398,23.33919 5.775,5.70641 12.75,12.09079 15.5,14.18753 6.1856,4.71623 49.6365,48.85537 58.5,59.42665 3.575,4.26382 8.3213,9.85172 10.5474,12.41756 8.9301,10.29283 32.4526,43.73047 32.4526,46.13182 0,0.56834 0.45,1.03334 1,1.03334 0.55,0 1,0.45 1,1 0,2.13358 -1.8783,0.65661 -11.5188,-9.05757 z"
     id="path3723"
     inkscape:connector-curvature="0" />
</svg>
